# xmcd
#
# Track frame offsets: 
#        150
#        18030
#        39525
#        58264
#        73175
#        93602
#        111605
#        123985
#        141815
#        153992
#        166940
#        183220
#        199232
#        216695
#        234780
#        249040
#        262565
#        281605
#        300052
#        319297
#
# Disc length: 4443 seconds
#
# Revision: 2
# Processed by: cddbd v1.5.2PL0 Copyright (c) Steve Scherf et al.
# Submitted via: ExactAudioCopyFreeDBPlugin 1.0
#
DISCID=14115914
DTITLE=Chrystian and Ralf - O Essencial De Chrystian and Ralf
DYEAR=1999
DGENRE=Sertanejo
TTITLE0=O Que Tiver Que Vir, Virá
TTITLE1=Olhos De Luar
TTITLE2=Mande A Solidão Pra Outro Lugar
TTITLE3=O Ypê E O Prisioneiro
TTITLE4=Yolanda
TTITLE5=O Amor Não É Paixão
TTITLE6=Sentimento Louco
TTITLE7=Coração Caçador
TTITLE8=Minha Estrela É Você
TTITLE9=Vira, Virou
TTITLE10=Ansiedade
TTITLE11=Beijo Gelado
TTITLE12=Sou Eu
TTITLE13=Sonho De Criança
TTITLE14=Charly
TTITLE15=Diz Pra Ela
TTITLE16=Quem É Você
TTITLE17=Você Não Me Ensinou A Te Esquecer
TTITLE18=Uma Canção Pra Nós Dois
TTITLE19=Com Você
EXTD=
EXTT0=
EXTT1=
EXTT2=
EXTT3=
EXTT4=
EXTT5=
EXTT6=
EXTT7=
EXTT8=
EXTT9=
EXTT10=
EXTT11=
EXTT12=
EXTT13=
EXTT14=
EXTT15=
EXTT16=
EXTT17=
EXTT18=
EXTT19=
PLAYORDER=
